<?xml version="1.0" encoding="UTF-8" standalone="no"?>
<!DOCTYPE svg PUBLIC "-//W3C//DTD SVG 1.1//EN"
 "http://www.w3.org/Graphics/SVG/1.1/DTD/svg11.dtd">
<!-- Generated by graphviz version 2.22.2 (20090313.1817)
 -->
<!-- Title: Classes Pages: 1 -->
<svg width="1848pt" height="1664pt"
 viewBox="0.00 0.00 1848.00 1664.00" xmlns="http://www.w3.org/2000/svg" xmlns:xlink="http://www.w3.org/1999/xlink">
<g id="graph1" class="graph" transform="scale(1 1) rotate(0) translate(4 1660)">
<title>Classes</title>
<polygon fill="white" stroke="white" points="-4,5 -4,-1660 1845,-1660 1845,5 -4,5"/>
<!-- 09a15e9660c1ebc6f429d818825ce0c6 -->
<g id="node1" class="node"><title>09a15e9660c1ebc6f429d818825ce0c6</title>
<polygon fill="none" stroke="black" points="131,-900 59,-900 59,-864 131,-864 131,-900"/>
<text text-anchor="middle" x="95" y="-877.9" font-family="Times Roman,serif" font-size="14.00">stdClass</text>
</g>
<!-- fc20aaa4b306d1b19bdda32e2c9bac37 -->
<g id="node2" class="node"><title>fc20aaa4b306d1b19bdda32e2c9bac37</title>
<polygon fill="none" stroke="black" points="607,-1656 505,-1656 505,-1620 607,-1620 607,-1656"/>
<text text-anchor="middle" x="556" y="-1633.9" font-family="Times Roman,serif" font-size="14.00">classRegistry</text>
</g>
<!-- fc20aaa4b306d1b19bdda32e2c9bac37&#45;&gt;09a15e9660c1ebc6f429d818825ce0c6 -->
<g id="edge2" class="edge"><title>fc20aaa4b306d1b19bdda32e2c9bac37&#45;&gt;09a15e9660c1ebc6f429d818825ce0c6</title>
<path fill="none" stroke="black" d="M504.701,-1622.19C499.606,-1619.08 494.889,-1615.39 491,-1611 267.896,-1359.16 623.447,-882 287,-882"/>
</g>
<!-- 831232cf3e1309479de1fd25b64d03e9 -->
<g id="node3" class="node"><title>831232cf3e1309479de1fd25b64d03e9</title>
<polygon fill="none" stroke="black" points="595,-1602 517,-1602 517,-1566 595,-1566 595,-1602"/>
<text text-anchor="middle" x="556" y="-1579.9" font-family="Times Roman,serif" font-size="14.00">Controller</text>
</g>
<!-- 831232cf3e1309479de1fd25b64d03e9&#45;&gt;09a15e9660c1ebc6f429d818825ce0c6 -->
<g id="edge4" class="edge"><title>831232cf3e1309479de1fd25b64d03e9&#45;&gt;09a15e9660c1ebc6f429d818825ce0c6</title>
<path fill="none" stroke="black" d="M516.727,-1574.12C507.251,-1570.14 497.885,-1564.61 491,-1557 280.768,-1324.57 600.401,-882 287,-882"/>
</g>
<!-- f3ae05bde6a6f3e48e01a328b46dee9c -->
<g id="node4" class="node"><title>f3ae05bde6a6f3e48e01a328b46dee9c</title>
<polygon fill="none" stroke="black" points="601,-1548 511,-1548 511,-1512 601,-1512 601,-1548"/>
<text text-anchor="middle" x="556" y="-1525.9" font-family="Times Roman,serif" font-size="14.00">Component</text>
</g>
<!-- f3ae05bde6a6f3e48e01a328b46dee9c&#45;&gt;09a15e9660c1ebc6f429d818825ce0c6 -->
<g id="edge6" class="edge"><title>f3ae05bde6a6f3e48e01a328b46dee9c&#45;&gt;09a15e9660c1ebc6f429d818825ce0c6</title>
<path fill="none" stroke="black" d="M510.791,-1517.24C503.456,-1513.58 496.481,-1508.92 491,-1503 293.563,-1289.89 577.511,-882 287,-882"/>
</g>
<!-- da74f58c53f64edf6a4ecdde84e696e5 -->
<g id="node5" class="node"><title>da74f58c53f64edf6a4ecdde84e696e5</title>
<polygon fill="none" stroke="black" points="599,-1494 513,-1494 513,-1458 599,-1458 599,-1494"/>
<text text-anchor="middle" x="556" y="-1471.9" font-family="Times Roman,serif" font-size="14.00">dbo_mssql</text>
</g>
<!-- da74f58c53f64edf6a4ecdde84e696e5&#45;&gt;09a15e9660c1ebc6f429d818825ce0c6 -->
<g id="edge8" class="edge"><title>da74f58c53f64edf6a4ecdde84e696e5&#45;&gt;09a15e9660c1ebc6f429d818825ce0c6</title>
<path fill="none" stroke="black" d="M512.266,-1463.76C504.434,-1460.02 496.9,-1455.19 491,-1449 306.258,-1255.11 554.814,-882 287,-882"/>
</g>
<!-- f7c36719d9887cee74310a594623dde0 -->
<g id="node6" class="node"><title>f7c36719d9887cee74310a594623dde0</title>
<polygon fill="none" stroke="black" points="599,-1440 513,-1440 513,-1404 599,-1404 599,-1440"/>
<text text-anchor="middle" x="556" y="-1417.9" font-family="Times Roman,serif" font-size="14.00">dbo_mysql</text>
</g>
<!-- f7c36719d9887cee74310a594623dde0&#45;&gt;09a15e9660c1ebc6f429d818825ce0c6 -->
<g id="edge10" class="edge"><title>f7c36719d9887cee74310a594623dde0&#45;&gt;09a15e9660c1ebc6f429d818825ce0c6</title>
<path fill="none" stroke="black" d="M512.428,-1409.6C504.582,-1405.87 497.002,-1401.09 491,-1395 318.825,-1220.19 532.366,-882 287,-882"/>
</g>
<!-- b52883f78ff2d820c8f5b9145914b4a5 -->
<g id="node7" class="node"><title>b52883f78ff2d820c8f5b9145914b4a5</title>
<polygon fill="none" stroke="black" points="593,-1386 519,-1386 519,-1350 593,-1350 593,-1386"/>
<text text-anchor="middle" x="556" y="-1363.9" font-family="Times Roman,serif" font-size="14.00">dbo_pdo</text>
</g>
<!-- b52883f78ff2d820c8f5b9145914b4a5&#45;&gt;09a15e9660c1ebc6f429d818825ce0c6 -->
<g id="edge12" class="edge"><title>b52883f78ff2d820c8f5b9145914b4a5&#45;&gt;09a15e9660c1ebc6f429d818825ce0c6</title>
<path fill="none" stroke="black" d="M518.705,-1358.08C508.782,-1354.05 498.696,-1348.51 491,-1341 331.221,-1185.09 510.241,-882 287,-882"/>
</g>
<!-- 46764450b89f720efefaec4c2c49542f -->
<g id="node8" class="node"><title>46764450b89f720efefaec4c2c49542f</title>
<polygon fill="none" stroke="black" points="597,-1332 515,-1332 515,-1296 597,-1296 597,-1332"/>
<text text-anchor="middle" x="556" y="-1309.9" font-family="Times Roman,serif" font-size="14.00">dispatcher</text>
</g>
<!-- 46764450b89f720efefaec4c2c49542f&#45;&gt;09a15e9660c1ebc6f429d818825ce0c6 -->
<g id="edge14" class="edge"><title>46764450b89f720efefaec4c2c49542f&#45;&gt;09a15e9660c1ebc6f429d818825ce0c6</title>
<path fill="none" stroke="black" d="M514.873,-1302.1C506.294,-1298.27 497.802,-1293.32 491,-1287 343.387,-1149.77 488.545,-882 287,-882"/>
</g>
<!-- 53788291bc790387add18d84bf4fa914 -->
<g id="node9" class="node"><title>53788291bc790387add18d84bf4fa914</title>
<polygon fill="none" stroke="black" points="585,-1278 527,-1278 527,-1242 585,-1242 585,-1278"/>
<text text-anchor="middle" x="556" y="-1255.9" font-family="Times Roman,serif" font-size="14.00">Helper</text>
</g>
<!-- 53788291bc790387add18d84bf4fa914&#45;&gt;09a15e9660c1ebc6f429d818825ce0c6 -->
<g id="edge16" class="edge"><title>53788291bc790387add18d84bf4fa914&#45;&gt;09a15e9660c1ebc6f429d818825ce0c6</title>
<path fill="none" stroke="black" d="M526.886,-1252.42C514.782,-1248.2 501.206,-1241.93 491,-1233 355.231,-1114.16 467.434,-882 287,-882"/>
</g>
<!-- 643f843fe5eee1ce570f93f6ffa0baab -->
<g id="node10" class="node"><title>643f843fe5eee1ce570f93f6ffa0baab</title>
<polygon fill="none" stroke="black" points="587,-1224 525,-1224 525,-1188 587,-1188 587,-1224"/>
<text text-anchor="middle" x="556" y="-1201.9" font-family="Times Roman,serif" font-size="14.00">kataExt</text>
</g>
<!-- 643f843fe5eee1ce570f93f6ffa0baab&#45;&gt;09a15e9660c1ebc6f429d818825ce0c6 -->
<g id="edge18" class="edge"><title>643f843fe5eee1ce570f93f6ffa0baab&#45;&gt;09a15e9660c1ebc6f429d818825ce0c6</title>
<path fill="none" stroke="black" d="M524.906,-1197.21C513.449,-1192.96 500.871,-1187 491,-1179 366.613,-1078.14 447.139,-882 287,-882"/>
</g>
<!-- 820e50d0ffa0e3340cdb0c93f6efc6d9 -->
<g id="node11" class="node"><title>820e50d0ffa0e3340cdb0c93f6efc6d9</title>
<polygon fill="none" stroke="black" points="592,-1170 520,-1170 520,-1134 592,-1134 592,-1170"/>
<text text-anchor="middle" x="556" y="-1147.9" font-family="Times Roman,serif" font-size="14.00">kataGlob</text>
</g>
<!-- 820e50d0ffa0e3340cdb0c93f6efc6d9&#45;&gt;09a15e9660c1ebc6f429d818825ce0c6 -->
<g id="edge20" class="edge"><title>820e50d0ffa0e3340cdb0c93f6efc6d9&#45;&gt;09a15e9660c1ebc6f429d818825ce0c6</title>
<path fill="none" stroke="black" d="M519.962,-1140.6C510.059,-1136.54 499.669,-1131.36 491,-1125 377.313,-1041.57 428.012,-882 287,-882"/>
</g>
<!-- f295229dfb678f28c406b3a175bbeeae -->
<g id="node12" class="node"><title>f295229dfb678f28c406b3a175bbeeae</title>
<polygon fill="none" stroke="black" points="609,-1116 503,-1116 503,-1080 609,-1080 609,-1116"/>
<text text-anchor="middle" x="556" y="-1093.9" font-family="Times Roman,serif" font-size="14.00">kataHardtyped</text>
</g>
<!-- f295229dfb678f28c406b3a175bbeeae&#45;&gt;09a15e9660c1ebc6f429d818825ce0c6 -->
<g id="edge22" class="edge"><title>f295229dfb678f28c406b3a175bbeeae&#45;&gt;09a15e9660c1ebc6f429d818825ce0c6</title>
<path fill="none" stroke="black" d="M507.117,-1079.93C501.531,-1077.22 496.039,-1074.23 491,-1071 386.974,-1004.25 410.598,-882 287,-882"/>
</g>
<!-- 70a6c1694b3e728a9ee97969f7742847 -->
<g id="node13" class="node"><title>70a6c1694b3e728a9ee97969f7742847</title>
<polygon fill="none" stroke="black" points="610,-1062 502,-1062 502,-1026 610,-1026 610,-1062"/>
<text text-anchor="middle" x="556" y="-1039.9" font-family="Times Roman,serif" font-size="14.00">kataImmutable</text>
</g>
<!-- 70a6c1694b3e728a9ee97969f7742847&#45;&gt;09a15e9660c1ebc6f429d818825ce0c6 -->
<g id="edge24" class="edge"><title>70a6c1694b3e728a9ee97969f7742847&#45;&gt;09a15e9660c1ebc6f429d818825ce0c6</title>
<path fill="none" stroke="black" d="M509.336,-1025.89C503.084,-1023.09 496.825,-1020.1 491,-1017 395.028,-965.914 395.722,-882 287,-882"/>
</g>
<!-- 9db16f9d6ed97e64c917343c07a8a281 -->
<g id="node14" class="node"><title>9db16f9d6ed97e64c917343c07a8a281</title>
<polygon fill="none" stroke="black" points="590,-1008 522,-1008 522,-972 590,-972 590,-1008"/>
<text text-anchor="middle" x="556" y="-985.9" font-family="Times Roman,serif" font-size="14.00">kataReg</text>
</g>
<!-- 9db16f9d6ed97e64c917343c07a8a281&#45;&gt;09a15e9660c1ebc6f429d818825ce0c6 -->
<g id="edge26" class="edge"><title>9db16f9d6ed97e64c917343c07a8a281&#45;&gt;09a15e9660c1ebc6f429d818825ce0c6</title>
<path fill="none" stroke="black" d="M521.252,-975.658C449.945,-946.28 293.212,-882 287,-882"/>
</g>
<!-- cab6a650fd55084ff38d184b7ce59899 -->
<g id="node15" class="node"><title>cab6a650fd55084ff38d184b7ce59899</title>
<polygon fill="none" stroke="black" points="592,-954 520,-954 520,-918 592,-918 592,-954"/>
<text text-anchor="middle" x="556" y="-931.9" font-family="Times Roman,serif" font-size="14.00">kataFunc</text>
</g>
<!-- cab6a650fd55084ff38d184b7ce59899&#45;&gt;09a15e9660c1ebc6f429d818825ce0c6 -->
<g id="edge28" class="edge"><title>cab6a650fd55084ff38d184b7ce59899&#45;&gt;09a15e9660c1ebc6f429d818825ce0c6</title>
<path fill="none" stroke="black" d="M519.481,-923.881C468.173,-907.96 371.549,-882 287,-882"/>
</g>
<!-- f5234418b1039b294f5b8181a67c9171 -->
<g id="node16" class="node"><title>f5234418b1039b294f5b8181a67c9171</title>
<polygon fill="none" stroke="black" points="583,-900 529,-900 529,-864 583,-864 583,-900"/>
<text text-anchor="middle" x="556" y="-877.9" font-family="Times Roman,serif" font-size="14.00">Model</text>
</g>
<!-- f5234418b1039b294f5b8181a67c9171&#45;&gt;09a15e9660c1ebc6f429d818825ce0c6 -->
<g id="edge30" class="edge"><title>f5234418b1039b294f5b8181a67c9171&#45;&gt;09a15e9660c1ebc6f429d818825ce0c6</title>
<path fill="none" stroke="black" d="M528.118,-882C479.269,-882 375.032,-882 287,-882"/>
</g>
<!-- 7b8830df37c408a8049acc327e2dc8bb -->
<g id="node17" class="node"><title>7b8830df37c408a8049acc327e2dc8bb</title>
<polygon fill="none" stroke="black" points="606,-846 506,-846 506,-810 606,-810 606,-846"/>
<text text-anchor="middle" x="556" y="-823.9" font-family="Times Roman,serif" font-size="14.00">ModelLoader</text>
</g>
<!-- 7b8830df37c408a8049acc327e2dc8bb&#45;&gt;09a15e9660c1ebc6f429d818825ce0c6 -->
<g id="edge32" class="edge"><title>7b8830df37c408a8049acc327e2dc8bb&#45;&gt;09a15e9660c1ebc6f429d818825ce0c6</title>
<path fill="none" stroke="black" d="M505.537,-844.348C451.928,-860.242 364.404,-882 287,-882"/>
</g>
<!-- 015e860ff3fdc29a06ab01a3b59e37fe -->
<g id="node18" class="node"><title>015e860ff3fdc29a06ab01a3b59e37fe</title>
<polygon fill="none" stroke="black" points="601,-792 511,-792 511,-756 601,-756 601,-792"/>
<text text-anchor="middle" x="556" y="-769.9" font-family="Times Roman,serif" font-size="14.00">CacheUtility</text>
</g>
<!-- 015e860ff3fdc29a06ab01a3b59e37fe&#45;&gt;09a15e9660c1ebc6f429d818825ce0c6 -->
<g id="edge34" class="edge"><title>015e860ff3fdc29a06ab01a3b59e37fe&#45;&gt;09a15e9660c1ebc6f429d818825ce0c6</title>
<path fill="none" stroke="black" d="M512.182,-792.077C437.494,-822.822 292.96,-882 287,-882"/>
</g>
<!-- 31a2651f6827fce4222b8fe9a4714a69 -->
<g id="node19" class="node"><title>31a2651f6827fce4222b8fe9a4714a69</title>
<polygon fill="none" stroke="black" points="616,-738 496,-738 496,-702 616,-702 616,-738"/>
<text text-anchor="middle" x="556" y="-715.9" font-family="Times Roman,serif" font-size="14.00">ClusterlockUtility</text>
</g>
<!-- 31a2651f6827fce4222b8fe9a4714a69&#45;&gt;09a15e9660c1ebc6f429d818825ce0c6 -->
<g id="edge36" class="edge"><title>31a2651f6827fce4222b8fe9a4714a69&#45;&gt;09a15e9660c1ebc6f429d818825ce0c6</title>
<path fill="none" stroke="black" d="M509.336,-738.111C503.084,-740.906 496.825,-743.899 491,-747 395.028,-798.086 395.722,-882 287,-882"/>
</g>
<!-- fadd8c85a2e6583d27928002c9b1a900 -->
<g id="node20" class="node"><title>fadd8c85a2e6583d27928002c9b1a900</title>
<polygon fill="none" stroke="black" points="593,-684 519,-684 519,-648 593,-648 593,-684"/>
<text text-anchor="middle" x="556" y="-661.9" font-family="Times Roman,serif" font-size="14.00">HttpUtility</text>
</g>
<!-- fadd8c85a2e6583d27928002c9b1a900&#45;&gt;09a15e9660c1ebc6f429d818825ce0c6 -->
<g id="edge38" class="edge"><title>fadd8c85a2e6583d27928002c9b1a900&#45;&gt;09a15e9660c1ebc6f429d818825ce0c6</title>
<path fill="none" stroke="black" d="M518.423,-678.965C509.133,-682.874 499.433,-687.589 491,-693 386.974,-759.747 410.598,-882 287,-882"/>
</g>
<!-- a489723b0fe02159eab34ce33557535b -->
<g id="node21" class="node"><title>a489723b0fe02159eab34ce33557535b</title>
<polygon fill="none" stroke="black" points="601,-630 511,-630 511,-594 601,-594 601,-630"/>
<text text-anchor="middle" x="556" y="-607.9" font-family="Times Roman,serif" font-size="14.00">ImageUtility</text>
</g>
<!-- a489723b0fe02159eab34ce33557535b&#45;&gt;09a15e9660c1ebc6f429d818825ce0c6 -->
<g id="edge40" class="edge"><title>a489723b0fe02159eab34ce33557535b&#45;&gt;09a15e9660c1ebc6f429d818825ce0c6</title>
<path fill="none" stroke="black" d="M510.773,-627.456C503.846,-630.749 497.01,-634.59 491,-639 377.313,-722.425 428.012,-882 287,-882"/>
</g>
<!-- 158f6f5ce4f886c4165f02634d2c9f6a -->
<g id="node22" class="node"><title>158f6f5ce4f886c4165f02634d2c9f6a</title>
<polygon fill="none" stroke="black" points="587,-576 525,-576 525,-540 587,-540 587,-576"/>
<text text-anchor="middle" x="556" y="-553.9" font-family="Times Roman,serif" font-size="14.00">IpUtility</text>
</g>
<!-- 158f6f5ce4f886c4165f02634d2c9f6a&#45;&gt;09a15e9660c1ebc6f429d818825ce0c6 -->
<g id="edge42" class="edge"><title>158f6f5ce4f886c4165f02634d2c9f6a&#45;&gt;09a15e9660c1ebc6f429d818825ce0c6</title>
<path fill="none" stroke="black" d="M524.906,-566.787C513.449,-571.039 500.871,-576.996 491,-585 366.613,-685.858 447.139,-882 287,-882"/>
</g>
<!-- bf62138aab380009a4355e83c2d0c9b2 -->
<g id="node23" class="node"><title>bf62138aab380009a4355e83c2d0c9b2</title>
<polygon fill="none" stroke="black" points="596,-522 516,-522 516,-486 596,-486 596,-522"/>
<text text-anchor="middle" x="556" y="-499.9" font-family="Times Roman,serif" font-size="14.00">LockUtility</text>
</g>
<!-- bf62138aab380009a4355e83c2d0c9b2&#45;&gt;09a15e9660c1ebc6f429d818825ce0c6 -->
<g id="edge44" class="edge"><title>bf62138aab380009a4355e83c2d0c9b2&#45;&gt;09a15e9660c1ebc6f429d818825ce0c6</title>
<path fill="none" stroke="black" d="M515.828,-515.903C507.008,-519.764 498.172,-524.722 491,-531 355.231,-649.841 467.434,-882 287,-882"/>
</g>
<!-- 8494bb5c1be19c7c11213cefa6e3bc7b -->
<g id="node24" class="node"><title>8494bb5c1be19c7c11213cefa6e3bc7b</title>
<polygon fill="none" stroke="black" points="598,-468 514,-468 514,-432 598,-432 598,-468"/>
<text text-anchor="middle" x="556" y="-445.9" font-family="Times Roman,serif" font-size="14.00">MinifyUtility</text>
</g>
<!-- 8494bb5c1be19c7c11213cefa6e3bc7b&#45;&gt;09a15e9660c1ebc6f429d818825ce0c6 -->
<g id="edge46" class="edge"><title>8494bb5c1be19c7c11213cefa6e3bc7b&#45;&gt;09a15e9660c1ebc6f429d818825ce0c6</title>
<path fill="none" stroke="black" d="M513.181,-462.667C505.184,-466.386 497.354,-471.093 491,-477 343.387,-614.225 488.545,-882 287,-882"/>
</g>
<!-- e1b1b27a66f47678df095155191bb187 -->
<g id="node25" class="node"><title>e1b1b27a66f47678df095155191bb187</title>
<polygon fill="none" stroke="black" points="583,-414 529,-414 529,-378 583,-378 583,-414"/>
<text text-anchor="middle" x="556" y="-391.9" font-family="Times Roman,serif" font-size="14.00">JSMin</text>
</g>
<!-- e1b1b27a66f47678df095155191bb187&#45;&gt;09a15e9660c1ebc6f429d818825ce0c6 -->
<g id="edge48" class="edge"><title>e1b1b27a66f47678df095155191bb187&#45;&gt;09a15e9660c1ebc6f429d818825ce0c6</title>
<path fill="none" stroke="black" d="M528.371,-402.405C515.689,-406.518 501.233,-413.015 491,-423 331.221,-578.907 510.241,-882 287,-882"/>
</g>
<!-- 3abb65802c62f0d7c40f2dd320aa8afa -->
<g id="node26" class="node"><title>3abb65802c62f0d7c40f2dd320aa8afa</title>
<polygon fill="none" stroke="black" points="593,-360 519,-360 519,-324 593,-324 593,-360"/>
<text text-anchor="middle" x="556" y="-337.9" font-family="Times Roman,serif" font-size="14.00">RsaUtility</text>
</g>
<!-- 3abb65802c62f0d7c40f2dd320aa8afa&#45;&gt;09a15e9660c1ebc6f429d818825ce0c6 -->
<g id="edge50" class="edge"><title>3abb65802c62f0d7c40f2dd320aa8afa&#45;&gt;09a15e9660c1ebc6f429d818825ce0c6</title>
<path fill="none" stroke="black" d="M518.172,-351.862C508.356,-355.881 498.46,-361.426 491,-369 318.825,-543.814 532.366,-882 287,-882"/>
</g>
<!-- 646a5367ce9731ec53851c36815249ce -->
<g id="node27" class="node"><title>646a5367ce9731ec53851c36815249ce</title>
<polygon fill="none" stroke="black" points="620,-306 492,-306 492,-270 620,-270 620,-306"/>
<text text-anchor="middle" x="556" y="-283.9" font-family="Times Roman,serif" font-size="14.00">SimpleparseUtility</text>
</g>
<!-- 646a5367ce9731ec53851c36815249ce&#45;&gt;09a15e9660c1ebc6f429d818825ce0c6 -->
<g id="edge52" class="edge"><title>646a5367ce9731ec53851c36815249ce&#45;&gt;09a15e9660c1ebc6f429d818825ce0c6</title>
<path fill="none" stroke="black" d="M501.84,-306.078C497.887,-308.68 494.203,-311.638 491,-315 306.258,-508.894 554.814,-882 287,-882"/>
</g>
<!-- 28bcf3c5dc941f2c69352ebf1ebbe129 -->
<g id="node28" class="node"><title>28bcf3c5dc941f2c69352ebf1ebbe129</title>
<polygon fill="none" stroke="black" points="606,-252 506,-252 506,-216 606,-216 606,-252"/>
<text text-anchor="middle" x="556" y="-229.9" font-family="Times Roman,serif" font-size="14.00">ValidateUtility</text>
</g>
<!-- 28bcf3c5dc941f2c69352ebf1ebbe129&#45;&gt;09a15e9660c1ebc6f429d818825ce0c6 -->
<g id="edge54" class="edge"><title>28bcf3c5dc941f2c69352ebf1ebbe129&#45;&gt;09a15e9660c1ebc6f429d818825ce0c6</title>
<path fill="none" stroke="black" d="M505.859,-249.418C500.363,-252.607 495.235,-256.428 491,-261 293.563,-474.108 577.511,-882 287,-882"/>
</g>
<!-- e6a7bb7c469b53be38e16c68a9b388c0 -->
<g id="node29" class="node"><title>e6a7bb7c469b53be38e16c68a9b388c0</title>
<polygon fill="none" stroke="black" points="583,-198 529,-198 529,-162 583,-162 583,-198"/>
<text text-anchor="middle" x="556" y="-175.9" font-family="Times Roman,serif" font-size="14.00">View</text>
</g>
<!-- e6a7bb7c469b53be38e16c68a9b388c0&#45;&gt;09a15e9660c1ebc6f429d818825ce0c6 -->
<g id="edge56" class="edge"><title>e6a7bb7c469b53be38e16c68a9b388c0&#45;&gt;09a15e9660c1ebc6f429d818825ce0c6</title>
<path fill="none" stroke="black" d="M528.785,-185.556C515.733,-189.513 500.836,-196.125 491,-207 280.768,-439.429 600.401,-882 287,-882"/>
</g>
<!-- d1457b72c3fb323a2671125aef3eab5d -->
<g id="node30" class="node"><title>d1457b72c3fb323a2671125aef3eab5d</title>
<polygon fill="none" stroke="black" points="583,-144 529,-144 529,-108 583,-108 583,-144"/>
<text text-anchor="middle" x="556" y="-121.9" font-family="Times Roman,serif" font-size="14.00">?</text>
</g>
<!-- d1457b72c3fb323a2671125aef3eab5d&#45;&gt;09a15e9660c1ebc6f429d818825ce0c6 -->
<g id="edge58" class="edge"><title>d1457b72c3fb323a2671125aef3eab5d&#45;&gt;09a15e9660c1ebc6f429d818825ce0c6</title>
<path fill="none" stroke="black" d="M528.69,-131.471C515.614,-135.406 500.724,-142.024 491,-153 267.896,-404.835 623.447,-882 287,-882"/>
<path fill="none" stroke="black" d="M287,-882C237.336,-882 180.446,-882 141.563,-882"/>
<polygon fill="none" stroke="black" points="141.095,-878.5 131.095,-882 141.095,-885.5 141.095,-878.5"/>
</g>
<!-- b0d4998a26f5b5742ad38c4af8817e32 -->
<g id="node31" class="node"><title>b0d4998a26f5b5742ad38c4af8817e32</title>
<polygon fill="none" stroke="black" points="1067,-144 989,-144 989,-108 1067,-108 1067,-144"/>
<text text-anchor="middle" x="1028" y="-121.9" font-family="Times Roman,serif" font-size="14.00">Exception</text>
</g>
<!-- b0d4998a26f5b5742ad38c4af8817e32&#45;&gt;d1457b72c3fb323a2671125aef3eab5d -->
<g id="edge60" class="edge"><title>b0d4998a26f5b5742ad38c4af8817e32&#45;&gt;d1457b72c3fb323a2671125aef3eab5d</title>
<path fill="none" stroke="black" d="M988.164,-126C898.343,-126 681.056,-126 593.496,-126"/>
<polygon fill="none" stroke="black" points="593.235,-122.5 583.235,-126 593.235,-129.5 593.235,-122.5"/>
</g>
<!-- 648f1bbd8c63bbd25913faa93d014e8d -->
<g id="node32" class="node"><title>648f1bbd8c63bbd25913faa93d014e8d</title>
<polygon fill="none" stroke="black" points="1636,-198 1532,-198 1532,-162 1636,-162 1636,-198"/>
<text text-anchor="middle" x="1584" y="-175.9" font-family="Times Roman,serif" font-size="14.00">kataStrictError</text>
</g>
<!-- 648f1bbd8c63bbd25913faa93d014e8d&#45;&gt;b0d4998a26f5b5742ad38c4af8817e32 -->
<g id="edge62" class="edge"><title>648f1bbd8c63bbd25913faa93d014e8d&#45;&gt;b0d4998a26f5b5742ad38c4af8817e32</title>
<path fill="none" stroke="black" d="M1531.43,-165.586C1462.78,-148.234 1338.64,-121.889 1231,-126"/>
</g>
<!-- 39de211daff40a7b4c07758899d918a7 -->
<g id="node33" class="node"><title>39de211daff40a7b4c07758899d918a7</title>
<polygon fill="none" stroke="black" points="1680,-144 1488,-144 1488,-108 1680,-108 1680,-144"/>
<text text-anchor="middle" x="1584" y="-121.9" font-family="Times Roman,serif" font-size="14.00">DatabaseConnectException</text>
</g>
<!-- 39de211daff40a7b4c07758899d918a7&#45;&gt;b0d4998a26f5b5742ad38c4af8817e32 -->
<g id="edge64" class="edge"><title>39de211daff40a7b4c07758899d918a7&#45;&gt;b0d4998a26f5b5742ad38c4af8817e32</title>
<path fill="none" stroke="black" d="M1487.32,-124.014C1416.36,-123.04 1317.65,-122.691 1231,-126"/>
</g>
<!-- 4ecd98a64a13134f2626ca1db53c083c -->
<g id="node34" class="node"><title>4ecd98a64a13134f2626ca1db53c083c</title>
<polygon fill="none" stroke="black" points="1669,-90 1499,-90 1499,-54 1669,-54 1669,-90"/>
<text text-anchor="middle" x="1584" y="-67.9" font-family="Times Roman,serif" font-size="14.00">DatabaseErrorException</text>
</g>
<!-- 4ecd98a64a13134f2626ca1db53c083c&#45;&gt;b0d4998a26f5b5742ad38c4af8817e32 -->
<g id="edge66" class="edge"><title>4ecd98a64a13134f2626ca1db53c083c&#45;&gt;b0d4998a26f5b5742ad38c4af8817e32</title>
<path fill="none" stroke="black" d="M1501.42,-90.069C1430.2,-104.342 1324.39,-122.434 1231,-126"/>
</g>
<!-- 86ef1df17c3b3c989f2d233fdaa198a5 -->
<g id="node35" class="node"><title>86ef1df17c3b3c989f2d233fdaa198a5</title>
<polygon fill="none" stroke="black" points="1643,-36 1525,-36 1525,-1.06581e-014 1643,-0 1643,-36"/>
<text text-anchor="middle" x="1584" y="-13.9" font-family="Times Roman,serif" font-size="14.00">JSMinException</text>
</g>
<!-- 86ef1df17c3b3c989f2d233fdaa198a5&#45;&gt;b0d4998a26f5b5742ad38c4af8817e32 -->
<g id="edge68" class="edge"><title>86ef1df17c3b3c989f2d233fdaa198a5&#45;&gt;b0d4998a26f5b5742ad38c4af8817e32</title>
<path fill="none" stroke="black" d="M1231,-126C1178.73,-127.996 1118.83,-127.678 1077.72,-127.057"/>
<polygon fill="none" stroke="black" points="1077.75,-123.558 1067.69,-126.895 1077.63,-130.557 1077.75,-123.558"/>
<path fill="none" stroke="black" d="M1524.92,-34.0913C1512.37,-37.6058 1499.23,-41.3638 1487,-45 1372.61,-79.0057 1350.25,-121.446 1231,-126"/>
</g>
</g>
</svg>
